<?xml version="1.0" standalone="no"?>
<!DOCTYPE svg PUBLIC "-//W3C//DTD SVG 20010904//EN"
 "http://www.w3.org/TR/2001/REC-SVG-20010904/DTD/svg10.dtd">
<svg version="1.0" xmlns="http://www.w3.org/2000/svg"
 width="700.000000pt" height="700.000000pt" viewBox="0 0 700.000000 700.000000"
 preserveAspectRatio="xMidYMid meet">
<metadata>
Created by potrace 1.11, written by Peter Selinger 2001-2013
</metadata>
<g transform="translate(0.000000,700.000000) scale(0.100000,-0.100000)"
fill="#000000" stroke="none">
<path d="M3039 6194 l-467 -467 -628 11 c-542 9 -632 8 -651 -4 l-23 -14 0
-638 0 -637 -464 -464 c-316 -316 -462 -469 -459 -480 2 -9 211 -223 464 -476
l459 -460 1 -130 c1 -71 5 -366 8 -655 l6 -525 647 -3 647 -2 447 -450 c304
-306 454 -450 468 -450 14 0 166 144 471 450 l450 450 655 0 c577 0 658 2 678
16 l22 15 0 656 0 655 445 453 c245 249 445 457 445 461 0 5 -200 209 -444
454 l-445 445 -11 655 c-7 360 -16 663 -21 673 -9 16 -51 17 -654 17 l-643 0
-453 455 c-249 250 -460 455 -468 455 -9 0 -226 -210 -482 -466z m2947 -2154
l542 -545 -1516 -1506 -1515 -1505 -971 975 c-533 537 -1212 1219 -1507 1516
l-537 540 1515 1506 1516 1505 966 -970 c531 -534 1209 -1216 1507 -1516z
m-3536 1597 c0 -1 -241 -243 -535 -537 l-535 -535 0 538 0 537 535 0 c294 0
535 -1 535 -3z m3210 -547 c0 -302 -1 -550 -3 -550 -1 0 -250 248 -552 550
l-550 550 553 0 552 0 0 -550z m0 -3175 l0 -555 -557 0 -558 0 555 555 c305
305 556 555 557 555 2 0 3 -250 3 -555z m-3735 -15 l540 -540 -543 0 -542 0 0
540 c0 297 1 540 3 540 1 0 245 -243 542 -540z"/>
<path d="M1985 4590 c-302 -48 -518 -234 -597 -517 -27 -100 -30 -274 -4 -378
25 -103 79 -207 134 -259 193 -183 264 -233 336 -241 17 -2 60 -13 96 -25 92
-30 257 -37 378 -17 216 38 343 147 407 350 14 43 30 87 35 98 12 21 -2 26
-17 7 -5 -7 -15 -35 -21 -63 -44 -173 -160 -307 -287 -331 l-40 -7 65 45 c131
90 249 283 226 372 -8 32 -34 41 -58 19 -10 -9 -38 -52 -61 -96 -49 -93 -132
-176 -194 -195 -102 -31 -222 -3 -287 67 -17 17 -38 31 -49 31 -10 0 -95 -25
-189 -56 -96 -32 -177 -53 -186 -49 -19 7 -15 9 198 88 8 3 36 11 61 18 25 7
56 21 69 31 24 19 24 25 2 138 -20 101 -23 134 -23 250 0 211 56 407 138 492
50 52 112 71 210 65 119 -7 163 -22 163 -52 0 -18 -4 -19 -38 -1 -15 7 -43 17
-62 21 -34 6 -34 6 -14 -9 37 -27 96 -126 142 -236 56 -137 103 -186 151 -161
17 10 21 6 31 -24 15 -46 30 -45 31 3 0 20 2 46 4 57 2 11 5 97 5 190 1 94 5
189 9 213 6 31 5 42 -4 42 -7 0 -15 9 -18 20 -3 10 -21 27 -40 36 -34 16 -37
16 -101 -10 -37 -14 -78 -26 -92 -26 -14 0 -66 18 -117 39 -51 21 -110 44
-132 50 -58 16 -191 21 -260 11z m-126 -1386 c14 -12 -19 -1 -35 12 -18 14
-18 14 6 3 14 -6 27 -13 29 -15z"/>
<path d="M2921 4570 c-87 -18 -115 -60 -66 -98 14 -11 25 -28 25 -37 0 -12 5
-15 18 -10 40 16 80 16 108 1 l29 -15 -58 -1 -57 0 17 -27 c15 -23 19 -63 26
-258 10 -276 10 -261 2 -505 -4 -107 -11 -209 -16 -227 -6 -17 -35 -59 -65
-93 -51 -58 -54 -63 -41 -84 8 -11 29 -26 48 -33 26 -9 29 -12 12 -12 -13 -1
-23 -4 -23 -9 0 -8 613 -5 650 4 14 4 57 6 95 6 39 0 54 2 35 5 -59 7 -66 12
-42 29 31 22 28 34 -23 84 l-45 44 0 -44 c0 -35 -3 -42 -12 -32 -10 10 -14 75
-16 236 -4 222 -4 224 19 245 14 13 29 19 39 15 28 -13 258 -16 345 -5 184 25
273 98 325 266 32 101 34 104 37 60 2 -22 10 -72 19 -111 17 -69 17 -73 -5
-161 -20 -81 -22 -110 -19 -299 3 -177 6 -214 21 -241 13 -25 24 -33 46 -33
16 0 35 7 42 16 12 14 14 14 20 -3 4 -10 8 -34 9 -53 2 -32 3 -30 18 25 33
117 58 133 142 91 73 -37 122 -34 88 4 -7 7 12 -8 42 -33 58 -50 167 -108 235
-126 54 -14 128 -13 196 3 69 17 89 27 166 88 81 64 120 110 152 178 22 47 26
68 25 150 0 83 -4 103 -28 155 -16 33 -30 68 -31 77 -1 9 -19 43 -41 74 -125
180 -123 175 -79 207 24 17 24 17 40 -14 9 -17 20 -27 25 -23 5 5 11 95 15
199 3 105 8 198 11 208 3 11 0 17 -10 17 -8 0 -16 -8 -18 -17 -3 -13 -9 -7
-23 21 -30 59 -43 64 -117 38 -41 -14 -86 -22 -129 -22 -45 0 -70 -5 -78 -14
-10 -12 -8 -16 10 -21 21 -7 21 -9 6 -20 -15 -11 -14 -15 10 -51 15 -21 44
-61 66 -88 50 -64 99 -162 95 -189 -5 -39 -49 -32 -215 34 -191 75 -242 100
-288 140 -38 34 -43 34 -140 4 -63 -20 -44 3 25 29 25 10 66 35 91 57 84 69
113 82 213 89 l91 7 -86 1 c-51 1 -106 -4 -134 -13 -27 -8 -51 -13 -53 -10 -8
8 56 34 114 45 86 17 94 24 66 52 -20 20 -35 23 -118 26 -77 3 -108 0 -162
-18 -101 -32 -150 -73 -227 -192 -37 -57 -79 -115 -92 -130 -14 -14 -24 -30
-23 -34 2 -10 -420 -147 -428 -140 -3 3 4 9 14 12 10 4 26 13 34 20 8 7 78 33
155 59 144 48 195 72 195 90 0 6 -18 47 -39 91 -43 86 -108 157 -179 193 -94
48 -139 52 -612 56 -245 2 -465 -1 -489 -5z m786 -149 c14 -8 8 -10 -30 -11
l-48 0 25 -43 c30 -50 61 -221 51 -282 -9 -56 -37 -115 -75 -152 -36 -37 -59
-41 -100 -16 -27 16 -33 14 -220 -46 -106 -34 -195 -59 -198 -56 -6 6 -9 4 48
32 25 13 104 42 175 65 80 26 141 52 158 67 l27 25 0 196 c0 245 0 245 101
237 38 -3 77 -10 86 -16z m-170 -628 c-2 -16 -4 -5 -4 22 0 28 2 40 4 28 2
-13 2 -35 0 -50z m933 -91 c1 -16 1 -16 11 1 16 27 54 20 161 -28 103 -47 141
-59 76 -24 -58 30 -45 32 20 3 31 -14 119 -51 195 -81 76 -30 136 -57 134 -59
-2 -2 -32 7 -67 21 -83 32 -85 32 -20 -7 98 -59 121 -126 70 -198 -48 -67
-144 -82 -253 -40 -68 26 -177 122 -228 201 -34 54 -51 60 -24 10 8 -17 13
-31 10 -31 -9 0 -66 121 -85 183 -23 71 -24 81 -10 72 6 -3 10 -14 10 -23z
m200 -18 c0 -2 -13 2 -30 11 -16 9 -30 18 -30 21 0 2 14 -2 30 -11 17 -9 30
-18 30 -21z m435 -184 c3 -6 -1 -7 -9 -4 -18 7 -21 14 -7 14 6 0 13 -4 16 -10z
m-525 -60 c6 -11 8 -20 6 -20 -3 0 -10 9 -16 20 -6 11 -8 20 -6 20 3 0 10 -9
16 -20z m600 -235 c0 -2 -11 -12 -25 -21 -37 -24 -101 -34 -170 -26 l-60 7 85
6 c68 5 126 18 168 38 1 0 2 -1 2 -4z"/>
<path d="M4770 3620 c8 -5 20 -10 25 -10 6 0 3 5 -5 10 -8 5 -19 10 -25 10 -5
0 -3 -5 5 -10z"/>
<path d="M4540 3305 c0 -5 96 -55 107 -55 4 0 -2 7 -15 15 -26 19 -92 47 -92
40z"/>
<path d="M5624 2976 c-43 -43 -45 -83 -6 -127 47 -53 138 -37 163 29 14 35 4
69 -31 103 -40 41 -82 39 -126 -5z m119 -14 c16 -14 25 -82 11 -82 -16 0 -32
35 -22 47 17 20 -10 43 -51 44 -29 0 -32 2 -16 9 24 10 54 3 78 -18z m-100
-55 c-3 -20 -9 -34 -14 -31 -10 6 -12 45 -3 69 11 28 24 1 17 -38z m74 -59
c-20 -7 -35 -7 -50 0 -18 9 -14 11 28 11 46 -1 48 -1 22 -11z"/>
<path d="M1895 2933 c-46 -3 -121 -19 -203 -44 -18 -6 -46 -8 -62 -4 -23 5
-30 3 -30 -9 0 -8 9 -20 20 -26 11 -6 20 -20 20 -31 0 -11 13 -34 30 -50 16
-17 34 -47 40 -68 10 -38 52 -90 74 -92 77 -9 112 3 148 51 29 40 58 40 58 0
0 -16 -4 -30 -10 -30 -5 0 -10 -4 -10 -10 0 -6 30 -10 70 -10 64 0 86 9 60 25
-16 10 -12 65 5 65 10 0 15 -10 15 -29 0 -52 51 -77 101 -51 22 12 27 45 5 37
-10 -4 -15 5 -18 34 -2 21 0 39 5 39 4 0 19 12 32 26 31 34 32 75 3 108 -44
47 -205 79 -353 69z m-61 -229 c10 -4 16 -18 16 -40 0 -27 -4 -34 -20 -34 -17
0 -20 7 -20 40 0 43 0 43 24 34z"/>
<path d="M2768 2921 c-20 -4 -48 -15 -62 -24 -14 -9 -43 -17 -66 -17 -22 0
-40 -4 -40 -10 0 -5 5 -10 10 -10 6 0 10 -45 10 -115 0 -70 -4 -115 -10 -115
-5 0 -10 -4 -10 -10 0 -6 30 -10 70 -10 64 0 86 9 60 25 -5 3 -10 33 -10 66 0
33 4 58 9 55 5 -3 7 -16 3 -28 -5 -20 -3 -21 37 -14 24 3 58 4 77 0 32 -6 34
-9 34 -45 0 -22 -4 -39 -10 -39 -5 0 -10 -4 -10 -10 0 -6 30 -10 70 -10 64 0
86 9 60 25 -16 10 -12 65 5 65 10 0 15 -10 15 -29 0 -52 51 -77 101 -51 23 13
26 45 3 36 -12 -5 -15 1 -12 27 2 24 8 33 24 35 16 2 23 -4 27 -25 6 -33 52
-83 76 -84 9 0 27 -2 41 -4 112 -12 171 176 80 258 -24 21 -40 27 -76 27 -25
0 -54 -5 -65 -11 -15 -8 -27 -6 -52 10 -18 11 -62 25 -97 30 -72 12 -235 13
-292 2z m522 -175 c0 -88 -3 -115 -14 -119 -8 -3 -17 -3 -20 0 -3 4 -6 57 -6
120 0 106 1 113 20 113 19 0 20 -7 20 -114z"/>
<path d="M4995 2905 c-38 -13 -77 -24 -85 -25 -21 0 -62 -63 -54 -83 9 -24
-14 -117 -37 -149 -10 -15 -19 -30 -19 -33 0 -3 18 -5 40 -5 41 0 49 7 29 27
-19 19 -2 43 30 43 31 0 49 -26 31 -44 -5 -5 -10 -14 -10 -18 0 -4 63 -8 140
-8 128 0 160 6 130 25 -16 10 -12 65 5 65 10 0 15 -10 15 -29 0 -52 51 -77
101 -51 22 12 27 45 5 37 -10 -4 -15 5 -18 34 -3 31 0 40 15 45 10 3 25 22 33
41 13 31 13 38 -3 71 -15 31 -27 39 -78 55 -101 30 -188 31 -270 2z m-77 -186
c2 -11 -6 -18 -23 -21 -20 -4 -25 -2 -21 9 3 8 6 19 6 25 0 16 35 4 38 -13z
m153 -29 c5 0 9 -13 9 -30 0 -23 -5 -30 -19 -30 -20 0 -31 18 -31 52 0 14 5
18 16 14 9 -3 20 -6 25 -6z"/>
<path d="M3680 2909 c-14 -6 -47 -15 -75 -20 -60 -11 -95 -45 -95 -92 0 -45
20 -69 79 -97 52 -24 68 -54 36 -66 -8 -4 -15 -12 -15 -20 0 -39 90 16 105 64
5 17 12 32 15 32 3 0 13 -18 23 -39 28 -61 104 -85 164 -53 29 16 63 60 63 83
0 10 9 23 20 29 19 10 20 8 20 -45 0 -30 -4 -55 -10 -55 -5 0 -10 -4 -10 -10
0 -6 30 -10 70 -10 64 0 86 9 60 25 -6 4 -10 56 -10 123 l0 117 -52 19 c-63
22 -345 33 -388 15z m200 -239 c0 -33 -3 -40 -20 -40 -17 0 -20 7 -20 40 0 33
3 40 20 40 17 0 20 -7 20 -40z"/>
<path d="M4405 2903 c-28 -9 -100 -18 -162 -20 -90 -3 -113 -7 -113 -19 0 -8
6 -14 14 -14 8 0 24 -12 36 -27 18 -23 29 -28 66 -27 l44 1 0 -78 c0 -43 -4
-81 -10 -84 -26 -16 -4 -25 60 -25 64 0 86 9 60 25 -5 3 -10 36 -10 72 0 63 1
65 23 58 12 -4 38 -9 58 -12 35 -5 36 -6 54 -74 16 -65 20 -70 43 -67 20 2 28
12 40 53 l15 50 15 -53 c14 -47 18 -53 40 -50 20 2 28 12 37 46 7 23 11 52 7
64 -3 13 -1 19 5 15 6 -4 15 17 22 49 8 33 20 60 32 67 30 19 22 27 -26 27
-45 0 -54 -7 -35 -26 6 -6 7 -30 3 -60 l-7 -49 -16 65 c-13 55 -20 66 -39 68
-13 2 -27 -2 -31 -8 -5 -8 -13 -9 -26 -2 -36 19 -123 52 -136 51 -7 0 -35 -7
-63 -16z"/>
<path d="M1563 2882 c-12 -2 -36 -16 -52 -31 -75 -70 -55 -212 35 -241 41 -14
53 -7 36 20 -15 25 -16 212 -1 227 16 16 7 28 -18 25z"/>
<path d="M2260 2870 c0 -5 5 -10 10 -10 6 0 10 -45 10 -115 0 -70 -4 -115 -10
-115 -5 0 -10 -4 -10 -10 0 -6 27 -10 60 -10 l60 0 0 135 0 135 -60 0 c-33 0
-60 -4 -60 -10z"/>
<path d="M2390 2865 c0 -8 6 -15 14 -15 8 0 23 -11 34 -25 28 -36 42 -31 42
15 l0 40 -45 0 c-33 0 -45 -4 -45 -15z"/>
<path d="M5350 2870 c0 -5 5 -10 10 -10 6 0 10 -45 10 -115 0 -70 -4 -115 -10
-115 -5 0 -10 -4 -10 -10 0 -6 27 -10 60 -10 l60 0 0 135 0 135 -60 0 c-33 0
-60 -4 -60 -10z"/>
<path d="M5480 2866 c0 -8 11 -17 24 -20 14 -3 28 -15 31 -27 10 -31 30 -17
33 24 l3 37 -45 0 c-33 0 -46 -4 -46 -14z"/>
<path d="M2406 2775 c-18 -27 -21 -45 -7 -45 5 0 11 -9 14 -20 11 -41 27 -20
27 35 0 60 -9 68 -34 30z"/>
<path d="M4150 2785 c0 -8 -4 -15 -10 -15 -15 0 -12 -28 6 -55 25 -38 34 -30
34 30 0 42 -3 55 -15 55 -8 0 -15 -7 -15 -15z"/>
<path d="M5496 2775 c-18 -27 -21 -45 -7 -45 5 0 13 -9 16 -20 12 -38 25 -20
25 35 0 60 -9 68 -34 30z"/>
<path d="M3510 2660 c0 -45 2 -50 23 -48 12 1 32 -2 45 -6 16 -5 22 -3 22 7 0
8 -7 17 -15 21 -8 3 -23 21 -32 41 -25 52 -43 45 -43 -15z"/>
<path d="M2445 2678 c-6 -13 -20 -27 -32 -33 -39 -17 -27 -35 22 -35 l45 0 0
45 c0 49 -18 61 -35 23z"/>
<path d="M5532 2670 c-13 -16 -29 -30 -37 -30 -8 0 -15 -7 -15 -15 0 -11 12
-15 45 -15 l45 0 0 45 c0 25 -4 45 -8 45 -5 0 -18 -13 -30 -30z"/>
<path d="M1652 2666 c-6 -13 -20 -27 -31 -31 -12 -3 -21 -13 -21 -21 0 -18 4
-18 40 1 42 22 68 75 37 75 -8 0 -19 -11 -25 -24z"/>
</g>
</svg>
